<?xml version="1.0" encoding="utf-8"?>
<svg viewBox="0 0 460 101" xmlns="http://www.w3.org/2000/svg">
  <g id="svgg" transform="matrix(0.2243169993162155, 0, 0, 0.2243169993162155, -0.42981311678886414, 2.5831298828124964)" style="">
    <path id="path0" d="M216.329 27.905 C 216.013 29.052,214.047 36.961,211.960 45.482 C 206.035 69.675,198.059 102.175,193.048 122.542 C 191.274 129.752,188.771 139.940,187.486 145.184 C 186.200 150.427,183.609 160.973,181.727 168.620 C 179.846 176.266,177.255 186.812,175.970 192.056 C 172.315 206.972,167.155 227.985,163.046 244.687 C 160.977 253.098,156.961 269.454,154.122 281.033 C 147.437 308.298,147.655 307.448,147.354 307.448 C 147.040 307.448,146.578 305.735,141.200 284.608 C 138.864 275.432,135.830 263.545,134.457 258.193 C 133.083 252.840,130.208 241.579,128.066 233.168 C 125.924 224.757,123.984 217.743,123.754 217.582 C 123.525 217.421,100.189 217.332,71.897 217.384 L 20.457 217.478 20.353 233.466 L 20.249 249.454 59.280 249.460 C 80.748 249.463,98.510 249.597,98.752 249.758 C 98.994 249.918,101.113 257.557,103.462 266.733 C 119.039 327.588,120.386 332.857,125.904 354.518 C 128.352 364.131,130.748 373.426,131.228 375.174 L 132.101 378.352 147.651 378.455 C 162.207 378.553,163.214 378.515,163.409 377.860 C 163.523 377.475,164.420 373.853,165.402 369.811 C 166.385 365.770,168.727 356.207,170.608 348.560 C 172.490 340.914,175.258 329.652,176.761 323.535 C 178.264 317.418,180.767 307.229,182.324 300.894 C 183.882 294.558,186.385 284.369,187.887 278.252 C 189.389 272.135,191.980 261.589,193.645 254.816 C 198.389 235.519,202.003 220.810,204.967 208.739 C 206.469 202.622,209.060 192.075,210.725 185.303 C 215.469 166.006,219.083 151.297,222.047 139.225 C 227.559 116.778,230.805 103.573,233.961 90.765 C 235.737 83.555,238.163 73.635,239.351 68.719 C 240.539 63.803,241.691 59.368,241.911 58.862 L 242.310 57.943 273.787 58.098 L 305.263 58.254 311.538 59.313 C 332.153 62.794,344.790 69.471,349.696 79.473 C 356.315 92.969,351.473 142.865,342.510 153.519 C 341.905 154.238,340.757 155.874,339.959 157.155 C 325.646 180.128,290.612 192.052,256.639 185.514 C 253.895 184.986,254.509 183.277,251.183 200.698 C 247.959 217.583,248.018 216.682,250.115 216.996 C 250.953 217.121,253.426 217.496,255.611 217.830 C 259.126 218.366,262.642 218.674,274.677 219.500 L 277.855 219.718 277.879 245.807 C 277.969 342.125,293.189 387.240,326.844 390.948 C 345.790 393.035,365.430 379.525,388.939 348.235 C 391.267 345.137,393.088 342.467,392.986 342.302 C 392.560 341.612,367.974 324.370,367.389 324.351 C 367.022 324.339,365.092 326.526,362.850 329.494 C 350.040 346.451,337.997 357.588,331.020 358.930 C 325.717 359.949,318.586 342.486,314.622 318.769 C 310.909 296.557,308.820 252.757,310.022 222.310 L 310.314 214.897 313.946 213.744 C 333.117 207.656,353.599 193.397,363.938 178.942 C 365.186 177.197,367.295 174.250,368.625 172.393 C 376.253 161.742,381.258 145.022,383.785 121.751 C 385.124 109.419,385.108 86.733,383.756 80.239 C 377.727 51.290,353.045 32.423,314.399 27.225 C 304.944 25.953,299.948 25.827,258.700 25.823 L 216.904 25.819 216.329 27.905 " stroke="none" fill-rule="evenodd" style="fill: rgb(255, 255, 255);"/>
  </g>
  <path d="M 136.714 232.964 Q 138.628 232.964 140.698 233.257 Q 142.768 233.549 144.761 234.37 Q 146.753 235.229 148.53 236.694 Q 150.307 238.159 151.675 240.503 Q 153.042 242.885 153.823 246.225 Q 154.604 249.565 154.604 254.174 Q 154.604 258.784 153.823 262.124 Q 153.042 265.464 151.675 267.807 Q 150.307 270.19 148.53 271.674 Q 146.753 273.159 144.761 273.979 Q 142.768 274.839 140.698 275.132 Q 138.628 275.424 136.714 275.424 Q 134.839 275.424 132.788 275.132 Q 130.737 274.839 128.745 273.979 Q 126.753 273.159 124.995 271.674 Q 123.237 270.19 121.87 267.807 Q 120.503 265.464 119.721 262.124 Q 118.94 258.784 118.94 254.174 Q 118.94 249.565 119.721 246.225 Q 120.503 242.885 121.87 240.503 Q 123.237 238.159 124.995 236.694 Q 126.753 235.229 128.745 234.37 Q 130.737 233.549 132.768 233.257 Q 134.8 232.964 136.714 232.964 Z M 136.714 238.471 Q 134.487 238.471 132.514 239.174 Q 130.542 239.878 129.057 241.635 Q 127.534 243.432 126.636 246.44 Q 125.737 249.448 125.737 254.174 Q 125.737 258.862 126.636 261.889 Q 127.534 264.917 129.057 266.674 Q 130.542 268.471 132.514 269.155 Q 134.487 269.839 136.714 269.839 Q 138.979 269.839 140.991 269.155 Q 143.003 268.471 144.526 266.674 Q 146.05 264.917 146.929 261.889 Q 147.807 258.862 147.807 254.174 Q 147.807 249.448 146.929 246.44 Q 146.05 243.432 144.526 241.635 Q 143.003 239.878 140.991 239.174 Q 138.979 238.471 136.714 238.471 Z" transform="matrix(0.9033400416374205, 0, 0, 1.4615010023117065, -15.870956420898438, -314.3274230957031)" style="fill: rgb(255, 255, 255);"/>
  <path d="M 180.184 232.964 Q 182.098 232.964 184.168 233.257 Q 186.239 233.549 188.231 234.37 Q 190.223 235.229 192 236.694 Q 193.778 238.159 195.145 240.503 Q 196.512 242.885 197.293 246.225 Q 198.075 249.565 198.075 254.174 Q 198.075 258.784 197.293 262.124 Q 196.512 265.464 195.145 267.807 Q 193.778 270.19 192 271.674 Q 190.223 273.159 188.231 273.979 Q 186.239 274.839 184.168 275.132 Q 182.098 275.424 180.184 275.424 Q 178.309 275.424 176.258 275.132 Q 174.207 274.839 172.215 273.979 Q 170.223 273.159 168.465 271.674 Q 166.707 270.19 165.34 267.807 Q 163.973 265.464 163.192 262.124 Q 162.411 258.784 162.411 254.174 Q 162.411 249.565 163.192 246.225 Q 163.973 242.885 165.34 240.503 Q 166.707 238.159 168.465 236.694 Q 170.223 235.229 172.215 234.37 Q 174.207 233.549 176.239 233.257 Q 178.27 232.964 180.184 232.964 Z M 180.184 238.471 Q 177.957 238.471 175.985 239.174 Q 174.012 239.878 172.528 241.635 Q 171.004 243.432 170.106 246.44 Q 169.207 249.448 169.207 254.174 Q 169.207 258.862 170.106 261.889 Q 171.004 264.917 172.528 266.674 Q 174.012 268.471 175.985 269.155 Q 177.957 269.839 180.184 269.839 Q 182.45 269.839 184.461 269.155 Q 186.473 268.471 187.997 266.674 Q 189.52 264.917 190.399 261.889 Q 191.278 258.862 191.278 254.174 Q 191.278 249.448 190.399 246.44 Q 189.52 243.432 187.997 241.635 Q 186.473 239.878 184.461 239.174 Q 182.45 238.471 180.184 238.471 Z" transform="matrix(0.9033400416374205, 0, 0, 1.4615010023117065, -15.870956420898438, -314.3274230957031)" style="fill: rgb(255, 255, 255);"/>
  <path d="M 212.131 224.565 L 218.85 224.565 L 218.85 233.862 L 232.522 233.862 L 232.522 239.526 L 218.85 239.526 L 218.85 262.846 Q 218.85 265.19 218.986 266.421 Q 219.123 267.651 219.67 268.354 Q 220.686 269.76 223.772 269.76 Q 225.49 269.76 227.092 269.409 Q 228.732 269.057 230.1 268.628 Q 231.193 271.01 232.092 273.862 Q 227.482 275.424 222.795 275.424 Q 219.397 275.424 217.346 274.663 Q 215.295 273.901 214.123 272.182 Q 212.912 270.385 212.522 267.885 Q 212.131 265.385 212.131 260.971 L 212.131 239.526 L 206.272 239.526 L 206.272 233.862 L 212.131 233.862 Z" transform="matrix(0.9033400416374205, 0, 0, 1.4615010023117065, -15.870956420898438, -314.3274230957031)" style="fill: rgb(255, 255, 255);"/>
  <path d="M 310.897 218.354 L 321.796 218.354 L 328.554 274.487 L 321.405 274.487 L 315.546 227.221 L 315.155 227.221 L 299.647 274.487 L 290.897 274.487 L 275.39 227.221 L 274.999 227.221 L 269.14 274.487 L 261.991 274.487 L 268.749 218.354 L 279.647 218.354 L 295.272 266.987 Z" transform="matrix(0.9033400416374205, 0, 0, 1.4615010023117065, -15.870956420898438, -314.3274230957031)" style="fill: rgb(255, 255, 255);"/>
  <path d="M 341.215 241.049 L 339.496 235.581 Q 346.059 232.964 353.246 232.964 Q 359.535 232.964 362.856 235.073 Q 366.645 237.495 366.645 243.315 L 366.645 259.292 Q 366.645 262.495 366.723 265.854 Q 366.762 267.846 367.114 269.995 Q 367.426 272.026 367.934 273.862 L 361.528 275.268 Q 360.629 272.651 360.395 269.409 L 359.614 269.331 Q 354.77 275.424 347.27 275.424 Q 341.801 275.424 338.481 272.397 Q 335.16 269.37 335.16 263.862 Q 335.16 259.76 336.977 257.143 Q 338.793 254.526 342.114 252.729 Q 347.348 249.878 356.762 249.878 Q 358.012 249.878 360.121 249.956 L 360.121 244.018 Q 360.121 241.206 358.403 239.956 Q 356.684 238.706 353.012 238.706 Q 347.66 238.706 341.215 241.049 Z M 360.121 263.081 L 360.121 254.878 Q 359.067 254.799 357.035 254.799 Q 353.598 254.799 350.707 255.385 Q 346.41 256.245 344.047 258.1 Q 341.684 259.956 341.684 263.432 Q 341.684 269.682 348.481 269.682 Q 351.996 269.682 355.043 267.807 Q 357.543 266.245 360.121 263.081 Z" transform="matrix(0.9033400416374205, 0, 0, 1.4615010023117065, -15.870956420898438, -314.3274230957031)" style="fill: rgb(255, 255, 255);"/>
  <path d="M 391.569 232.964 Q 394.772 232.964 397.995 233.628 Q 401.218 234.292 403.991 235.464 Q 403.444 236.714 402.858 237.924 Q 402.272 239.135 401.569 240.307 Q 400.593 239.917 399.401 239.526 Q 398.21 239.135 396.901 238.862 Q 395.593 238.589 394.206 238.413 Q 392.819 238.237 391.491 238.237 Q 390.046 238.237 388.698 238.53 Q 387.351 238.823 386.315 239.487 Q 385.28 240.151 384.655 241.225 Q 384.03 242.299 384.03 243.901 Q 384.03 245.542 384.733 246.655 Q 385.436 247.768 386.647 248.51 Q 387.858 249.253 389.479 249.76 Q 391.101 250.268 392.936 250.698 Q 395.788 251.401 398.249 252.28 Q 400.71 253.159 402.507 254.565 Q 404.304 255.971 405.319 258.042 Q 406.335 260.112 406.335 263.159 Q 406.335 266.362 405.065 268.667 Q 403.796 270.971 401.628 272.475 Q 399.46 273.979 396.569 274.702 Q 393.679 275.424 390.397 275.424 Q 388.679 275.424 386.862 275.21 Q 385.046 274.995 383.269 274.585 Q 381.491 274.174 379.772 273.589 Q 378.054 273.003 376.53 272.299 Q 377.077 271.049 377.683 269.858 Q 378.288 268.667 378.952 267.495 Q 380.241 268.042 381.686 268.53 Q 383.132 269.018 384.655 269.37 Q 386.179 269.721 387.663 269.936 Q 389.147 270.151 390.515 270.151 Q 392.233 270.151 393.854 269.76 Q 395.476 269.37 396.745 268.53 Q 398.015 267.69 398.776 266.362 Q 399.538 265.034 399.538 263.159 Q 399.538 261.401 398.815 260.268 Q 398.093 259.135 396.882 258.374 Q 395.671 257.612 394.05 257.124 Q 392.429 256.635 390.632 256.206 Q 387.897 255.542 385.456 254.682 Q 383.015 253.823 381.198 252.436 Q 379.382 251.049 378.308 248.999 Q 377.233 246.948 377.233 243.901 Q 377.233 241.049 378.405 238.979 Q 379.577 236.909 381.55 235.581 Q 383.522 234.253 386.12 233.608 Q 388.718 232.964 391.569 232.964 Z" transform="matrix(0.9033400416374205, 0, 0, 1.4615010023117065, -15.870956420898438, -314.3274230957031)" style="fill: rgb(255, 255, 255);"/>
  <path d="M 420.403 224.565 L 427.121 224.565 L 427.121 233.862 L 440.793 233.862 L 440.793 239.526 L 427.121 239.526 L 427.121 262.846 Q 427.121 265.19 427.258 266.421 Q 427.395 267.651 427.942 268.354 Q 428.957 269.76 432.043 269.76 Q 433.762 269.76 435.364 269.409 Q 437.004 269.057 438.371 268.628 Q 439.465 271.01 440.364 273.862 Q 435.754 275.424 431.067 275.424 Q 427.668 275.424 425.617 274.663 Q 423.567 273.901 422.395 272.182 Q 421.184 270.385 420.793 267.885 Q 420.403 265.385 420.403 260.971 L 420.403 239.526 L 414.543 239.526 L 414.543 233.862 L 420.403 233.862 Z" transform="matrix(0.9033400416374205, 0, 0, 1.4615010023117065, -15.870956420898438, -314.3274230957031)" style="fill: rgb(255, 255, 255);"/>
  <path d="M 480.831 272.221 Q 476.495 273.94 472.687 274.682 Q 468.878 275.424 465.87 275.424 Q 461.261 275.424 457.823 273.96 Q 454.386 272.495 452.101 269.839 Q 449.816 267.182 448.663 263.491 Q 447.511 259.799 447.511 255.346 Q 447.511 252.612 447.901 249.878 Q 448.292 247.143 449.151 244.663 Q 450.011 242.182 451.398 240.034 Q 452.784 237.885 454.776 236.323 Q 456.769 234.76 459.425 233.862 Q 462.081 232.964 465.48 232.964 Q 474.191 232.964 478.605 238.413 Q 483.019 243.862 483.019 254.018 L 483.019 256.167 L 454.425 256.167 Q 454.425 259.448 455.128 261.967 Q 455.831 264.487 457.296 266.225 Q 458.761 267.964 461.007 268.862 Q 463.253 269.76 466.339 269.76 Q 468.058 269.76 469.757 269.507 Q 471.456 269.253 473.058 268.842 Q 474.659 268.432 476.124 267.924 Q 477.589 267.417 478.878 266.948 Z M 476.261 250.776 Q 475.948 244.448 473.233 241.538 Q 470.519 238.628 465.48 238.628 Q 460.441 238.628 457.804 241.538 Q 455.167 244.448 454.62 250.776 Z" transform="matrix(0.9033400416374205, 0, 0, 1.4615010023117065, -15.870956420898438, -314.3274230957031)" style="fill: rgb(255, 255, 255);"/>
  <path d="M 500.791 243.276 Q 502.002 240.854 503.389 238.901 Q 504.775 236.948 506.455 235.581 Q 507.979 234.253 509.815 233.608 Q 511.65 232.964 513.994 232.964 Q 514.775 232.964 515.811 233.042 Q 516.846 233.12 517.783 233.315 Q 517.627 235.268 517.412 236.987 Q 517.197 238.706 516.846 240.464 Q 514.893 240.112 513.272 239.956 Q 511.65 239.799 510.205 240.034 Q 508.486 240.346 507.217 241.186 Q 505.947 242.026 504.873 243.413 Q 503.799 244.799 502.783 246.733 Q 501.768 248.667 500.557 251.167 L 500.557 274.487 L 493.838 274.487 L 493.838 249.448 Q 493.838 246.987 493.779 245.112 Q 493.721 243.237 493.545 241.538 Q 493.369 239.839 493.018 238.178 Q 492.666 236.518 492.08 234.487 Q 493.721 234.057 495.303 233.706 Q 496.885 233.354 498.525 233.042 Q 499.072 234.604 499.404 235.815 Q 499.736 237.026 499.932 238.178 Q 500.127 239.331 500.225 240.522 Q 500.322 241.714 500.44 243.276 Z" transform="matrix(0.9033400416374205, 0, 0, 1.4615010023117065, -15.870956420898438, -314.3274230957031)" style="fill: rgb(255, 255, 255);"/>
</svg>