<?xml version="1.0" encoding="utf-8"?>
<svg viewBox="0 0 500 500" xmlns="http://www.w3.org/2000/svg">
  <defs>
    <linearGradient gradientUnits="userSpaceOnUse" x1="250" y1="0" x2="250" y2="500" id="gradient-0" gradientTransform="matrix(-0.701961, 0.712216, -0.601416, -0.592758, 573.008746, 227.094999)">
      <stop offset="0" style="stop-color: rgb(1, 65, 109);"/>
      <stop offset="1" style="stop-color: rgb(183, 25, 112);"/>
    </linearGradient>
  </defs>
  <rect style="stroke: rgb(0, 0, 0); fill-rule: evenodd; fill: url('#gradient-0'); paint-order: stroke; stroke-opacity: 0;" x="0" y="0" width="500" height="500" rx="0" ry="0" transform="matrix(1, 0, 0, 1, 0, 7.105427357601002e-15)"/>
  <g id="svgg" transform="matrix(1.1154470443725586, 0, 0, 1.1154470443725586, 8.332199096679702, 25.45188903808595)" style="">
    <path id="path0" d="M216.329 27.905 C 216.013 29.052,214.047 36.961,211.960 45.482 C 206.035 69.675,198.059 102.175,193.048 122.542 C 191.274 129.752,188.771 139.940,187.486 145.184 C 186.200 150.427,183.609 160.973,181.727 168.620 C 179.846 176.266,177.255 186.812,175.970 192.056 C 172.315 206.972,167.155 227.985,163.046 244.687 C 160.977 253.098,156.961 269.454,154.122 281.033 C 147.437 308.298,147.655 307.448,147.354 307.448 C 147.040 307.448,146.578 305.735,141.200 284.608 C 138.864 275.432,135.830 263.545,134.457 258.193 C 133.083 252.840,130.208 241.579,128.066 233.168 C 125.924 224.757,123.984 217.743,123.754 217.582 C 123.525 217.421,100.189 217.332,71.897 217.384 L 20.457 217.478 20.353 233.466 L 20.249 249.454 59.280 249.460 C 80.748 249.463,98.510 249.597,98.752 249.758 C 98.994 249.918,101.113 257.557,103.462 266.733 C 119.039 327.588,120.386 332.857,125.904 354.518 C 128.352 364.131,130.748 373.426,131.228 375.174 L 132.101 378.352 147.651 378.455 C 162.207 378.553,163.214 378.515,163.409 377.860 C 163.523 377.475,164.420 373.853,165.402 369.811 C 166.385 365.770,168.727 356.207,170.608 348.560 C 172.490 340.914,175.258 329.652,176.761 323.535 C 178.264 317.418,180.767 307.229,182.324 300.894 C 183.882 294.558,186.385 284.369,187.887 278.252 C 189.389 272.135,191.980 261.589,193.645 254.816 C 198.389 235.519,202.003 220.810,204.967 208.739 C 206.469 202.622,209.060 192.075,210.725 185.303 C 215.469 166.006,219.083 151.297,222.047 139.225 C 227.559 116.778,230.805 103.573,233.961 90.765 C 235.737 83.555,238.163 73.635,239.351 68.719 C 240.539 63.803,241.691 59.368,241.911 58.862 L 242.310 57.943 273.787 58.098 L 305.263 58.254 311.538 59.313 C 332.153 62.794,344.790 69.471,349.696 79.473 C 356.315 92.969,351.473 142.865,342.510 153.519 C 341.905 154.238,340.757 155.874,339.959 157.155 C 325.646 180.128,290.612 192.052,256.639 185.514 C 253.895 184.986,254.509 183.277,251.183 200.698 C 247.959 217.583,248.018 216.682,250.115 216.996 C 250.953 217.121,253.426 217.496,255.611 217.830 C 259.126 218.366,262.642 218.674,274.677 219.500 L 277.855 219.718 277.879 245.807 C 277.969 342.125,293.189 387.240,326.844 390.948 C 345.790 393.035,365.430 379.525,388.939 348.235 C 391.267 345.137,393.088 342.467,392.986 342.302 C 392.560 341.612,367.974 324.370,367.389 324.351 C 367.022 324.339,365.092 326.526,362.850 329.494 C 350.040 346.451,337.997 357.588,331.020 358.930 C 325.717 359.949,318.586 342.486,314.622 318.769 C 310.909 296.557,308.820 252.757,310.022 222.310 L 310.314 214.897 313.946 213.744 C 333.117 207.656,353.599 193.397,363.938 178.942 C 365.186 177.197,367.295 174.250,368.625 172.393 C 376.253 161.742,381.258 145.022,383.785 121.751 C 385.124 109.419,385.108 86.733,383.756 80.239 C 377.727 51.290,353.045 32.423,314.399 27.225 C 304.944 25.953,299.948 25.827,258.700 25.823 L 216.904 25.819 216.329 27.905 " stroke="none" fill="#ffffff" fill-rule="evenodd"/>
  </g>
</svg>